<svg width="38" height="30" viewBox="0 0 38 30" fill="none" xmlns="http://www.w3.org/2000/svg">
<path d="M18.8074 5.44774C16.0803 1.40734 10.5048 -0.127758 6.08302 1.91797C3.93995 2.89776 2.16389 4.72647 1.17773 6.8089C0.343158 8.69506 -0.0733289 10.7982 0.0112451 12.8679C0.135712 8.69826 3.3591 4.74402 7.44737 4.4137C10.591 4.15998 13.3644 5.84029 14.5979 8.84666C15.1851 10.278 15.5713 12.702 15.6 12.8647C15.5952 12.8583 15.5904 12.8504 15.5872 12.844C15.6303 12.9397 15.6718 13.0291 15.7133 13.1057C16.8526 15.3924 20.3393 14.5706 20.5276 11.9791C20.6984 9.6908 20.1207 7.3722 18.809 5.44774H18.8074Z" fill="url(#paint0_radial_34092_69)"/>
<path d="M18.8074 5.44774C16.0803 1.40734 10.5048 -0.127758 6.08302 1.91797C3.93995 2.89776 2.16389 4.72647 1.17773 6.8089C0.343158 8.69506 -0.0733289 10.7982 0.0112451 12.8679C0.135712 8.69826 3.3591 4.74402 7.44737 4.4137C10.591 4.15998 13.3644 5.84029 14.5979 8.84666C15.1851 10.278 15.5713 12.702 15.6 12.8647C15.5952 12.8583 15.5904 12.8504 15.5872 12.844C15.6303 12.9397 15.6718 13.0291 15.7133 13.1057C16.8526 15.3924 20.3393 14.5706 20.5276 11.9791C20.6984 9.6908 20.1207 7.3722 18.809 5.44774H18.8074Z" fill="url(#paint1_radial_34092_69)"/>
<path d="M33.4848 4.44249C32.5593 3.38452 31.4167 2.50048 30.1417 1.91804C25.9912 -0.00162965 20.8258 1.23347 17.9519 4.73132C16.9657 5.83557 16.2173 7.15684 15.8184 8.64566C15.4721 9.84565 15.4275 11.0983 15.536 12.3238C15.8471 15.3637 19.8556 15.485 20.6088 12.9127C20.6136 12.9031 20.6184 12.8919 20.6232 12.8807C20.7205 12.2903 21.0604 10.5047 21.3891 9.69087C21.5232 9.36055 21.3891 9.68927 21.3891 9.68927C22.6274 6.25046 25.4471 4.41696 27.9939 4.41696C33.0492 4.18239 37.6289 10.7488 36.2901 16.7903C36.3013 16.7823 36.488 15.9605 36.4975 15.9238C36.6332 15.2392 36.7273 14.5371 36.772 13.819C36.9523 10.4792 35.7842 6.92865 33.488 4.44568L33.4848 4.44249Z" fill="url(#paint2_radial_34092_69)"/>
<path d="M33.4848 4.44249C32.5593 3.38452 31.4167 2.50048 30.1417 1.91804C25.9912 -0.00162965 20.8258 1.23347 17.9519 4.73132C16.9657 5.83557 16.2173 7.15684 15.8184 8.64566C15.4721 9.84565 15.4275 11.0983 15.536 12.3238C15.8471 15.3637 19.8556 15.485 20.6088 12.9127C20.6136 12.9031 20.6184 12.8919 20.6232 12.8807C20.7205 12.2903 21.0604 10.5047 21.3891 9.69087C21.5232 9.36055 21.3891 9.68927 21.3891 9.68927C22.6274 6.25046 25.4471 4.41696 27.9939 4.41696C33.0492 4.18239 37.6289 10.7488 36.2901 16.7903C36.3013 16.7823 36.488 15.9605 36.4975 15.9238C36.6332 15.2392 36.7273 14.5371 36.772 13.819C36.9523 10.4792 35.7842 6.92865 33.488 4.44568L33.4848 4.44249Z" fill="url(#paint3_radial_34092_69)"/>
<path d="M7.44737 4.4137C2.274 4.83179 -1.51765 11.0488 0.603078 16.1664C2.10147 20.7062 5.77486 24.2488 9.91898 26.4589C11.0264 27.0365 12.0732 25.637 11.336 24.6796L10.9259 24.153C9.35569 21.9621 7.80463 19.6387 6.9174 17.1047C5.20997 13.0403 7.24453 8.46055 10.4998 8.46055C13.2748 8.46055 14.1987 10.7313 15.6844 13.0515C15.6796 13.0275 15.6381 12.8935 15.6158 12.7754C15.4849 12.0893 15.0971 10.0675 14.5961 8.84672C13.3626 5.83876 10.5892 4.16005 7.44559 4.41377L7.44737 4.4137Z" fill="url(#paint4_radial_34092_69)"/>
<path d="M7.44737 4.4137C2.274 4.83179 -1.51765 11.0488 0.603078 16.1664C2.10147 20.7062 5.77486 24.2488 9.91898 26.4589C11.0264 27.0365 12.0732 25.637 11.336 24.6796L10.9259 24.153C9.35569 21.9621 7.80463 19.6387 6.9174 17.1047C5.20997 13.0403 7.24453 8.46055 10.4998 8.46055C13.2748 8.46055 14.1987 10.7313 15.6844 13.0515C15.6796 13.0275 15.6381 12.8935 15.6158 12.7754C15.4849 12.0893 15.0971 10.0675 14.5961 8.84672C13.3626 5.83876 10.5892 4.16005 7.44559 4.41377L7.44737 4.4137Z" fill="url(#paint5_radial_34092_69)"/>
<path d="M27.9924 4.41373C25.4456 4.41373 22.6275 6.24723 21.3876 9.68604C21.3876 9.68604 21.5217 9.35732 21.3876 9.68764C21.0573 10.5015 20.719 12.2871 20.6217 12.8775C23.7318 4.10576 33.6652 9.70519 27.094 18.3652C26.0153 19.8142 24.6701 21.2136 23.2115 22.27C22.7743 22.586 22.3945 22.9769 22.1057 23.4333C19.8701 26.9726 24.3078 31.4806 28.0642 28.479C31.5094 25.7296 34.5014 22.1807 35.9455 17.9679C38.2258 11.6376 33.3796 4.1632 27.9924 4.41373Z" fill="url(#paint6_radial_34092_69)"/>
<path d="M27.9924 4.41373C25.4456 4.41373 22.6275 6.24723 21.3876 9.68604C21.3876 9.68604 21.5217 9.35732 21.3876 9.68764C21.0573 10.5015 20.719 12.2871 20.6217 12.8775C23.7318 4.10576 33.6652 9.70519 27.094 18.3652C26.0153 19.8142 24.6701 21.2136 23.2115 22.27C22.7743 22.586 22.3945 22.9769 22.1057 23.4333C19.8701 26.9726 24.3078 31.4806 28.0642 28.479C31.5094 25.7296 34.5014 22.1807 35.9455 17.9679C38.2258 11.6376 33.3796 4.1632 27.9924 4.41373Z" fill="url(#paint7_radial_34092_69)"/>
<path d="M36.7769 13.8048C36.8471 12.2713 36.6412 10.7266 36.1849 9.26489C35.7301 7.8016 35.0232 6.41651 34.0801 5.21332C33.8455 4.91173 33.5886 4.62928 33.3301 4.34684C33.0716 4.06439 32.8003 3.7979 32.5131 3.54578C31.9386 3.04312 31.3099 2.60429 30.6381 2.24844C29.9663 1.8926 29.2498 1.62292 28.5142 1.43143C27.7769 1.24951 27.0206 1.1426 26.2626 1.12505C24.745 1.08515 23.2195 1.38515 21.828 1.98994C21.4786 2.13834 21.1403 2.31068 20.8116 2.49738C20.4796 2.68089 20.1621 2.88833 19.8509 3.10535C19.2366 3.55056 18.6669 4.05641 18.169 4.63407C17.6536 5.20055 17.1892 5.80215 16.8094 6.46438C16.4281 7.12342 16.1265 7.82873 15.9174 8.56117C15.694 9.29202 15.5791 10.05 15.5392 10.8128C15.5201 11.1941 15.5201 11.5787 15.5392 11.9617C15.5488 12.1532 15.5584 12.3447 15.5839 12.5346C15.611 12.7229 15.6334 12.9159 15.7084 13.0947C15.6318 12.9175 15.6047 12.726 15.5743 12.5362C15.5456 12.3463 15.5329 12.1548 15.5201 11.9633C15.4946 11.5803 15.4866 11.1957 15.4993 10.8128C15.5233 10.0452 15.6334 9.27925 15.8536 8.54362C16.0594 7.8032 16.3579 7.08991 16.7376 6.42289C17.1142 5.75268 17.5802 5.13832 18.094 4.56705C19.0913 3.39737 20.3727 2.48142 21.7818 1.87345C23.186 1.26388 24.7291 0.962282 26.2658 1.00377C27.0333 1.02132 27.7993 1.13303 28.5429 1.32292C29.2849 1.52079 30.0078 1.79845 30.6844 2.16227C31.361 2.5261 31.9929 2.97291 32.5689 3.48195C32.8562 3.73727 33.129 4.00854 33.3875 4.29258C33.6445 4.57822 33.9014 4.86385 34.1343 5.17024C35.0742 6.38778 35.7732 7.78405 36.2168 9.25372C36.6636 10.7234 36.8583 12.2697 36.7769 13.8032V13.8048Z" fill="url(#paint8_linear_34092_69)"/>
<path d="M36.7769 13.8048C36.8471 12.2713 36.6412 10.7266 36.1849 9.26489C35.7301 7.8016 35.0232 6.41651 34.0801 5.21332C33.8455 4.91173 33.5886 4.62928 33.3301 4.34684C33.0716 4.06439 32.8003 3.7979 32.5131 3.54578C31.9386 3.04312 31.3099 2.60429 30.6381 2.24844C29.9663 1.8926 29.2498 1.62292 28.5142 1.43143C27.7769 1.24951 27.0206 1.1426 26.2626 1.12505C24.745 1.08515 23.2195 1.38515 21.828 1.98994C21.4786 2.13834 21.1403 2.31068 20.8116 2.49738C20.4796 2.68089 20.1621 2.88833 19.8509 3.10535C19.2366 3.55056 18.6669 4.05641 18.169 4.63407C17.6536 5.20055 17.1892 5.80215 16.8094 6.46438C16.4281 7.12342 16.1265 7.82873 15.9174 8.56117C15.694 9.29202 15.5791 10.05 15.5392 10.8128C15.5201 11.1941 15.5201 11.5787 15.5392 11.9617C15.5488 12.1532 15.5584 12.3447 15.5839 12.5346C15.611 12.7229 15.6334 12.9159 15.7084 13.0947C15.6318 12.9175 15.6047 12.726 15.5743 12.5362C15.5456 12.3463 15.5329 12.1548 15.5201 11.9633C15.4946 11.5803 15.4866 11.1957 15.4993 10.8128C15.5233 10.0452 15.6334 9.27925 15.8536 8.54362C16.0594 7.8032 16.3579 7.08991 16.7376 6.42289C17.1142 5.75268 17.5802 5.13832 18.094 4.56705C19.0913 3.39737 20.3727 2.48142 21.7818 1.87345C23.186 1.26388 24.7291 0.962282 26.2658 1.00377C27.0333 1.02132 27.7993 1.13303 28.5429 1.32292C29.2849 1.52079 30.0078 1.79845 30.6844 2.16227C31.361 2.5261 31.9929 2.97291 32.5689 3.48195C32.8562 3.73727 33.129 4.00854 33.3875 4.29258C33.6445 4.57822 33.9014 4.86385 34.1343 5.17024C35.0742 6.38778 35.7732 7.78405 36.2168 9.25372C36.6636 10.7234 36.8583 12.2697 36.7769 13.8032V13.8048Z" fill="url(#paint9_linear_34092_69)"/>
<defs>
<radialGradient id="paint0_radial_34092_69" cx="0" cy="0" r="1" gradientUnits="userSpaceOnUse" gradientTransform="translate(32.7382 3.18523) scale(21.4191 25.3621)">
<stop stop-color="#08D7FF"/>
<stop offset="1" stop-color="#3174FF"/>
</radialGradient>
<radialGradient id="paint1_radial_34092_69" cx="0" cy="0" r="1" gradientUnits="userSpaceOnUse" gradientTransform="translate(32.7382 3.18523) scale(21.4191 25.3621)">
<stop stop-color="#11D8FF"/>
<stop offset="1" stop-color="#3A7AFF"/>
</radialGradient>
<radialGradient id="paint2_radial_34092_69" cx="0" cy="0" r="1" gradientUnits="userSpaceOnUse" gradientTransform="translate(4.62948 3.04373) scale(21.1003 22.0446)">
<stop stop-color="#08D7FF"/>
<stop offset="1" stop-color="#3174FF"/>
</radialGradient>
<radialGradient id="paint3_radial_34092_69" cx="0" cy="0" r="1" gradientUnits="userSpaceOnUse" gradientTransform="translate(4.62948 3.04373) scale(21.1003 22.0446)">
<stop stop-color="#11D8FF"/>
<stop offset="1" stop-color="#3A7AFF"/>
</radialGradient>
<radialGradient id="paint4_radial_34092_69" cx="0" cy="0" r="1" gradientUnits="userSpaceOnUse" gradientTransform="translate(44.6317 32.9879) scale(69.8081 38.1325)">
<stop stop-color="#FF08FF"/>
<stop offset="0.36" stop-color="#ED0DFF"/>
<stop offset="1" stop-color="#382AFF"/>
</radialGradient>
<radialGradient id="paint5_radial_34092_69" cx="0" cy="0" r="1" gradientUnits="userSpaceOnUse" gradientTransform="translate(44.6317 32.9879) scale(69.8081 38.1325)">
<stop stop-color="#FF11FF"/>
<stop offset="0.36" stop-color="#EE16FF"/>
<stop offset="1" stop-color="#4033FF"/>
</radialGradient>
<radialGradient id="paint6_radial_34092_69" cx="0" cy="0" r="1" gradientUnits="userSpaceOnUse" gradientTransform="translate(-5.7485 29.4748) scale(68.3307 33.5472)">
<stop stop-color="#FF08FF"/>
<stop offset="0.36" stop-color="#ED0DFF"/>
<stop offset="1" stop-color="#382AFF"/>
</radialGradient>
<radialGradient id="paint7_radial_34092_69" cx="0" cy="0" r="1" gradientUnits="userSpaceOnUse" gradientTransform="translate(-5.7485 29.4748) scale(68.3307 33.5472)">
<stop stop-color="#FF11FF"/>
<stop offset="0.36" stop-color="#EE16FF"/>
<stop offset="1" stop-color="#4033FF"/>
</radialGradient>
<linearGradient id="paint8_linear_34092_69" x1="15.4196" y1="7.40267" x2="36.8647" y2="7.40267" gradientUnits="userSpaceOnUse">
<stop stop-color="#08FCFF"/>
<stop offset="1" stop-color="#2A69FF"/>
</linearGradient>
<linearGradient id="paint9_linear_34092_69" x1="15.4196" y1="7.40267" x2="36.8647" y2="7.40267" gradientUnits="userSpaceOnUse">
<stop stop-color="#2FFCFF"/>
<stop offset="1" stop-color="#336FFF"/>
</linearGradient>
</defs>
</svg>
